inDegrees=no
num_controls=7
num_derivatives=13
num_iterations=143
num_multipliers=7
num_parameters=0
num_slacks=7
num_states=26
objective=0.516715
objective_accelerations=0.039735
objective_balance=0.002200
objective_effort=0.043734
objective_height=0.419421
objective_ligament=0.011625
solver_duration=1891.845497
status=Solve_Succeeded
success=true
DataType=double
version=3
OpenSimVersion=4.5
endheader
time	/jointset/ground_pelvis/pelvis_tilt/value	/jointset/ground_pelvis/pelvis_tx/value	/jointset/ground_pelvis/pelvis_ty/value	/jointset/hip_l/hip_flexion_l/value	/jointset/hip_l/hip_adduction_l/value	/jointset/hip_l/hip_rotation_l/value	/jointset/back/lumbar_extension/value	/jointset/patellofemoral_l/patellar_flexion_l/value	/jointset/knee_l/knee_flexion_l/value	/jointset/knee_l/knee_adduction_l/value	/jointset/knee_l/knee_rotation_l/value	/jointset/ankle_l/ankle_angle_l/value	/jointset/subtalar_l/subtalar_angle_l/value	/jointset/ground_pelvis/pelvis_tilt/speed	/jointset/ground_pelvis/pelvis_tx/speed	/jointset/ground_pelvis/pelvis_ty/speed	/jointset/hip_l/hip_flexion_l/speed	/jointset/hip_l/hip_adduction_l/speed	/jointset/hip_l/hip_rotation_l/speed	/jointset/back/lumbar_extension/speed	/jointset/patellofemoral_l/patellar_flexion_l/speed	/jointset/knee_l/knee_flexion_l/speed	/jointset/knee_l/knee_adduction_l/speed	/jointset/knee_l/knee_rotation_l/speed	/jointset/ankle_l/ankle_angle_l/speed	/jointset/subtalar_l/subtalar_angle_l/speed	/forceset/tau_hip_flexion_l	/forceset/tau_hip_adduction_l	/forceset/tau_hip_rotation_l	/forceset/tau_knee_flexion_l	/forceset/tau_ankle_angle_l	/forceset/tau_subtalar_angle_l	/forceset/tau_lumbar_extension	lambda_cid13_p0	lambda_cid13_p1	lambda_cid13_p2	lambda_cid13_p3	lambda_cid13_p4	lambda_cid13_p5	lambda_cid14_p0	/jointset/ground_pelvis/pelvis_tilt/accel	/jointset/ground_pelvis/pelvis_tx/accel	/jointset/ground_pelvis/pelvis_ty/accel	/jointset/hip_l/hip_flexion_l/accel	/jointset/hip_l/hip_adduction_l/accel	/jointset/hip_l/hip_rotation_l/accel	/jointset/back/lumbar_extension/accel	/jointset/patellofemoral_l/patellar_flexion_l/accel	/jointset/knee_l/knee_flexion_l/accel	/jointset/knee_l/knee_adduction_l/accel	/jointset/knee_l/knee_rotation_l/accel	/jointset/ankle_l/ankle_angle_l/accel	/jointset/subtalar_l/subtalar_angle_l/accel	gamma_cid13_p0	gamma_cid13_p1	gamma_cid13_p2	gamma_cid13_p3	gamma_cid13_p4	gamma_cid13_p5	gamma_cid14_p0
0	-0.03682116116131871	0.05667673707000823	0.9203416132216403	0.3085816938045678	-0.2956395825823032	-0.3015901372456362	-0.3879492264334186	0.2499269421184918	0.2499269421184919	-0.1745329251994329	-0.1745158807434231	-0.0008036623358878681	0.0004383070550635286	0	0	0	0	0	0	0	0	0	0	0	0	0	0.05998522394485742	-0.03545668044870399	-0.0170780022183403	-0.2195086767675082	0.1478888587497484	-0.00983460279236878	0.01055572269334422	3.604729081591357	0.7238467911898319	2.761246873781321	23.90546526548359	-628.4017174640077	-73.2886373615636	-23.19639266525635	-1.273257038118365	-2.224595301180563	-0.8489524326861159	8.801468415571469	-0.5630897792144917	2.648899874582925	-7.018362796577594	7.572775676628403	7.572775676628232	1.257362597018033	-0.07086535736323499	0.4940858690279065	-0.4453935301980517	2.225310834356784e-08	1.239421382225025e-07	1.84618474208753e-08	-2.704314259118501e-08	1.671655790378157e-07	4.567421240293095e-08	6.942136786187045e-09
0.01	-0.03688160080856995	0.05656820345219711	0.9203001967023099	0.3090099186111295	-0.2956679138001433	-0.3014571715360777	-0.3882973103368189	0.2502975825712832	0.2502975825712819	-0.174473266230883	-0.1745164815142447	-0.0007787956800647175	0.0004159041430387808	-0.01206787359161622	-0.02145555033828123	-0.008237848688456168	0.08507992603157072	-0.005634095804669475	0.02646512746905157	-0.0690148743568323	0.07375329280586337	0.07375329280586573	0.01186963471091894	-0.0001025029312930761	0.005131426533512107	-0.004391167210521109	0.0581570201768013	-0.04547920388553028	-0.01743617296532366	-0.223741849314877	0.1550131142830273	-0.001548989076933918	0.01413491408525207	6.111180695078615	-3.15818080088386	3.202786000106589	19.38637842208508	-631.7020492178345	-81.27820835471049	-23.20064039645245	-1.170550931174314	-2.068364325184113	-0.8043493771648963	8.276495974930288	-0.5587687563087098	2.62611976941401	-6.752763806759498	7.220385031279047	7.220385031279505	1.142330575946693	0.02270450171469433	0.546390709702097	-0.4225883215145745	-6.875180075510779e-09	1.011071784837199e-07	7.248797390632065e-08	4.1884395235417e-09	2.863750158558015e-08	-1.098657184757872e-09	-2.574142331909479e-10
0.02	-0.03706211887403549	0.05625264844599673	0.920177772038047	0.3102719909336035	-0.2957516258310736	-0.3010633944345598	-0.3893174857940923	0.2513945117418755	0.2513945117418755	-0.1742967932161696	-0.1745175778618344	-0.0006978708260686387	0.000352267557901737	-0.02401568364287759	-0.04140427767785172	-0.01620162898649761	0.1667695031823564	-0.01107616261796206	0.05216227839201293	-0.1344183107746034	0.1452577435602765	0.1452577435602822	0.02336193613455348	-9.911535350446584e-05	0.01121163963459367	-0.008246734622459293	0.05632881640875421	-0.0555017273223507	-0.01779434371230423	-0.227975021862239	0.1621373698163108	0.006736624638508538	0.01771410547716195	8.676046274223884	-7.048531657490565	3.64347609921306	14.81998701979927	-634.0991550369749	-89.19298982734939	-23.21310344273791	-1.249244330047397	-1.923230701438412	-0.7941387546031705	8.123398639414466	-0.5246839809391144	2.495304565364883	-6.296075208765364	7.12300726633835	7.123007266338377	1.181895939561151	-0.04968725554689667	0.6838431825417995	-0.3382735704814665	-3.600346849458941e-08	7.82722187449374e-08	1.26514100391766e-07	3.542002163826841e-08	-1.098905758666554e-07	-4.787152677244669e-08	-7.45696525256894e-09
0.03	-0.03736096956172644	0.05574330410097079	0.9199767105602519	0.3123361898766294	-0.2958888471604736	-0.3004170758621986	-0.390975711703273	0.2531959764208853	0.2531959764208848	-0.1740072954778526	-0.1745189510838673	-0.0005535847364517516	0.0002519511627079709	-0.03566027355973238	-0.06039664495578839	-0.02399853261303918	0.2456967621477437	-0.01634427661192862	0.07698846732124474	-0.1968532930429867	0.2147198375361649	0.2147198375361615	0.03445670020234889	-0.0001685844023011358	0.01758552092368035	-0.01181171975109297	0.04858258428700818	-0.0490568411460745	-0.01662691174937303	-0.2193750929337166	0.1523548089008327	0.006176023706880822	0.02393229561196917	5.476503999457222	-6.348278751759645	3.649981713497188	16.39649101311408	-635.0836653331936	-86.76936918121305	-23.23326887597661	-1.107941292185561	-1.877040575043541	-0.7706686105835805	7.72135638751539	-0.524326903396357	2.459314154685811	-6.16117303310108	6.810508777861547	6.810508777860246	1.061154416434694	0.01548497098984538	0.6051525789429948	-0.3649140831844939	-4.758727615196732e-08	7.147220172518298e-08	1.677124550584382e-07	4.53178366026271e-08	-1.600048527263574e-07	-6.847225593852181e-08	-1.273965739950886e-08
0.04	-0.03777344114252182	0.05504607591635103	0.9196980395574106	0.3151784547817921	-0.2960780399887676	-0.2995258877809484	-0.3932470800945828	0.2556826017025838	0.2556826017025825	-0.1736092725436488	-0.1745208066562803	-0.0003473614385738038	0.0001161242964018347	-0.04673986226383047	-0.07898104559661459	-0.03172353399574109	0.3223826956097114	-0.02147046239673272	0.101136180169816	-0.2570468072004218	0.2822898640979516	0.2822898640979425	0.04506697531198278	-0.0001955854296618346	0.02359908128680277	-0.01534882884493362	0.04083635216526244	-0.04261195496979699	-0.01545947978644521	-0.2107751640051927	0.1425722479853557	0.005615422775254821	0.03015048574677553	2.331099333461322	-5.654619023778093	3.654242028829417	17.92137774927612	-635.2400292244049	-84.27524978383995	-23.26057934615175	-1.136244087496058	-1.841637374016317	-0.7797583058352384	7.675133538730551	-0.4962983391066202	2.359609349232777	-5.847781586575735	6.744593783518006	6.74459378351873	1.084998147928844	-0.04119365125970048	0.6117789973489465	-0.3326983635228609	-5.880934193796997e-08	6.500280208107862e-08	2.086463195845172e-07	5.477578007934935e-08	-2.082961646253886e-07	-8.853335334332655e-08	-1.798282668309953e-08
0.05	-0.03829437523477546	0.05416577922399776	0.9193424096998944	0.3187759617388604	-0.2963175818063728	-0.2983970557787671	-0.3961078760820994	0.2588353165835305	0.2588353165835301	-0.1731073248677552	-0.1745229400076915	-8.197818437268142e-05	-5.443550373795414e-05	-0.05737594329533911	-0.09693626979460578	-0.03939277147193081	0.396664298111634	-0.02639921747140523	0.1244941653997695	-0.3146378835257877	0.3479067780206656	0.3479067780206472	0.05524969953527587	-0.0002238315087349019	0.02949671683845473	-0.01871552412199168	0.03423719119898865	-0.0411117745701385	-0.01472954291490484	-0.2065065045200107	0.1386901944081245	0.007686086255686431	0.0361148331368046	1.166625909532749	-6.363839264044018	3.783099143012062	17.32518926219185	-636.114950701681	-84.84714328452918	-23.29430614899899	-1.016639678740451	-1.751150449190062	-0.7590986126403161	7.236507792058427	-0.4853931888378843	2.303454129108957	-5.643594638960054	6.41829372496468	6.41829372496283	0.9740094005112447	0.01748329750023672	0.581628021505281	-0.3315482454188066	-6.980548386162215e-08	4.090566205205423e-08	2.357484554965115e-07	6.495186141019108e-08	-2.624577521207328e-07	-1.085569475889736e-07	-2.3078880458662e-08
